grf_filtered
version=1
nRows=39
nColumns=28
inDegrees=no
endheader
time	ground_force_r_vx	ground_force_r_vy	ground_force_r_vz	ground_force_r_px	ground_force_r_py	ground_force_r_pz	ground_torque_r_x	ground_torque_r_y	ground_torque_r_z	ground_force_l_vx	ground_force_l_vy	ground_force_l_vz	ground_force_l_px	ground_force_l_py	ground_force_l_pz	ground_torque_l_x	ground_torque_l_y	ground_torque_l_z	pelvis_force_vx	pelvis_force_vy	pelvis_force_vz	pelvis_force_px	pelvis_force_py	pelvis_force_pz	pelvis_torque_x	pelvis_torque_y	pelvis_torque_z
0.0	6.457916746835442	57.080073	-2.300796021097047	0.210176564835443	0.0	0.08609316690295277	-7.599916	-0.131875	-1.316374	4.093333746835443	66.224657	-6.1078480210970465	0.1916636748354429	0.0	-0.2488963070970467	8.891364	-0.938587	0.46279	0	0.0	0	0	0	0	0	0	0
0.0016666666666664831	5.857999746835443	54.028359	-1.6799730210970472	0.203412376835443	0.0	0.09215070590295316	-6.864291	-0.490767	-1.501125	4.697164746835442	66.835227	-6.724434021097047	0.18808283483544297	0.0	-0.2527926550970472	8.710892	-1.184594	0.646012	0	0.0	0	0	0	0	0	0	0
0.0033333333333334103	6.470529746835442	56.4716	-1.0792210210970468	0.2102404098354429	0.0	0.09431292890295317	-7.051718	-0.125492	-2.049606	4.402461746835443	67.444963	-5.805073021097047	0.17917972683544292	0.0	-0.25663052209704773	8.534631	-1.797041	0.524362	0	0.0	0	0	0	0	0	0	0
0.004999999999999893	5.246958746835443	56.469326	-1.3726770210970471	0.2058918238354429	0.0	0.08464162690295307	-7.598122	-0.375447	-1.68296	4.093333746835443	66.224657	-6.1078480210970465	0.1878853108354429	0.0	-0.2571495670970476	8.344792	-1.18881	0.462735	0	0.0	0	0	0	0	0	0	0
0.006666666666666821	5.851429746835443	56.46929	-1.988853021097047	0.21021304283544295	0.0	0.08787790390295314	-7.417502	-0.129422	-1.774408	5.008219746835444	65.003524	-6.119015021097047	0.1876255728354429	0.0	-0.2435149130970471	9.07711	-1.18058	0.585149	0	0.0	0	0	0	0	0	0	0
0.008333333333333304	4.945441746835442	54.027475	-1.366033021097047	0.20792058383544298	0.0	0.08530957190295307	-7.233372	-0.249592	-1.866418	5.001153746835444	64.393679	-6.729831021097047	0.18552467283544283	0.0	-0.24498287609704672	8.895487	-1.304876	0.341024	0	0.0	0	0	0	0	0	0	0
0.010000000000000231	6.458827746835443	56.469723	-2.299867021097047	0.21024106783544294	0.0	0.09438157490295307	-7.051445	-0.125771	-1.866501	4.093041746835443	65.614305	-6.108351021097047	0.1822908288354429	0.0	-0.24196262209704678	9.26421	-1.544635	0.707609	0	0.0	0	0	0	0	0	0	0
0.011666666666666714	6.469618746835444	57.08195	-1.080151021097047	0.21234560983544293	0.0	0.08921314990295226	-7.418809	-0.007218	-1.865772	5.316763746835443	65.003128	-5.817245021097047	0.18570147583544294	0.0	-0.24632545309704756	8.8954	-1.304725	0.524129	0	0.0	0	0	0	0	0	0	0
0.013333333333333197	6.160427746835444	55.85986	-1.685688021097047	0.20788685583544297	0.0	0.0766089729029531	-7.965349	-0.257033	-1.590678	4.097012746835443	66.834755	-5.802188021097047	0.18086688283544294	0.0	-0.2472764210970464	9.082559	-1.668881	0.524519	0	0.0	0	0	0	0	0	0	0
0.015000000000000124	5.869894746835444	55.861755	-0.15695502109704673	0.205749114835443	0.0	0.07982155590295292	-7.781219	-0.377202	-1.682689	4.404972746835442	65.613656	-5.501424021097047	0.18965497383544294	0.0	-0.2476554750970461	8.89269	-1.0606	0.523927	0	0.0	0	0	0	0	0	0	0
0.016666666666666607	5.855266746835444	55.859409	-1.682762021097047	0.2057185148354429	0.0	0.07662976590295312	-7.964316	-0.378958	-1.682419	5.0057087468354435	66.834831	-6.422664021097047	0.18255881283544295	0.0	-0.25548565209704766	8.53195	-1.552966	0.463124	0	0.0	0	0	0	0	0	0	0
0.018333333333333535	6.773483746835442	54.029712	-1.6887520210970468	0.21004041683544294	0.0	0.08191720090295362	-7.417092	-0.12984	-1.49975	5.302339746835443	63.173086	-7.039381021097046	0.18508178683544296	0.0	-0.24519435009704704	8.712335	-1.306808	0.463008	0	0.0	0	0	0	0	0	0	0
0.020000000000000018	5.250987746835444	57.690965	-0.7642140210970472	0.20600807783544295	0.0	0.08428503490295292	-7.781765	-0.376645	-2.048899	4.0893617468354435	65.004207	-6.414010021097047	0.1857301618354429	0.0	-0.2491129500970466	8.712364	-1.306858	0.401973	0	0.0	0	0	0	0	0	0	0
0.0216666666666665	5.241299746835443	58.299908	-1.680627021097047	0.21236249983544297	0.0	0.08568919090295335	-7.784183	-0.011566	-1.315916	5.0060007468354435	67.445182	-6.422161021097047	0.1863603508354429	0.0	-0.25939651409704734	8.346205	-1.310973	0.340766	0	0.0	0	0	0	0	0	0	0
0.023333333333333428	5.554134746835443	57.080597	-1.071372021097047	0.2081801878354429	0.0	0.09567049290295238	-7.050138	-0.247975	-1.775137	3.788176746835443	66.2248	-6.1044610210970465	0.18424432583544292	0.0	-0.2543440860970474	8.530508	-1.430752	0.646129	0	0.0	0	0	0	0	0	0	0
0.02499999999999991	5.852340746835443	55.85894	-1.987923021097047	0.21230718083544287	0.0	0.07986277090295335	-7.784593	-0.011148	-1.590574	4.7030627468354425	65.003668	-6.115628021097047	0.19139600483544295	0.0	-0.24355676509704693	9.074517	-0.936656	0.340806	0	0.0	0	0	0	0	0	0	0
0.02666666666666684	5.5599857468354426	57.081535	-0.4610490210970468	0.21444287683544294	0.0	0.07953297990295294	-7.968723	0.109021	-1.498563	3.787300746835443	64.393746	-6.105969021097047	0.18928096583544296	0.0	-0.2535857420970471	8.343378	-1.066647	0.584704	0	0.0	0	0	0	0	0	0	0
0.02833333333333332	5.244225746835443	58.300377	-1.375466021097047	0.20192174383544292	0.0	0.08891418890295277	-7.595645	-0.619715	-1.591783	4.100107746835443	66.224151	-5.497534021097047	0.1861338968354429	0.0	-0.24886419009704763	8.895429	-1.304776	0.463094	0	0.0	0	0	0	0	0	0	0
0.03000000000000025	4.933020746835442	56.467468	-2.285235021097047	0.21017141583544285	0.0	0.07816529990295251	-7.966109	-0.135387	-1.315833	3.791563746835443	66.224547	-5.799304021097047	0.18799184083544285	0.0	-0.24887018209704692	8.894074	-1.182713	0.462993	0	0.0	0	0	0	0	0	0	0
0.03166666666666673	5.247150746835443	58.300846	-1.070304021097047	0.21023792383544293	0.0	0.082534814902953	-7.967203	-0.134271	-2.048253	4.703646746835442	66.22437	-6.1146220210970466	0.1842618108354429	0.0	-0.24881414609704677	8.896871	-1.426989	0.28009	0	0.0	0	0	0	0	0	0	0
0.033333333333333215	5.231611746835442	58.908851	-2.597041021097047	0.20612077383544292	0.0	0.08407482390295318	-7.963769	-0.379516	-1.316208	4.398197746835443	65.614162	-6.111738021097047	0.18773305983544286	0.0	-0.25318618109704705	8.527827	-1.186677	0.584891	0	0.0	0	0	0	0	0	0	0
0.03500000000000014	7.074090746835443	57.081914	-1.6963260210970468	0.20592592883544292	0.0	0.09251736890295348	-7.231518	-0.372353	-1.408843	4.700259746835442	66.224623	-6.419779021097047	0.18604374883544295	0.0	-0.254349427097047	8.529182	-1.30874	0.584992	0	0.0	0	0	0	0	0	0	0
0.036666666666666625	6.4687077468354435	57.6923	-1.0810800210970468	0.20603234683544291	0.0	0.09382583790295307	-7.231928	-0.371935	-1.683501	4.686127746835442	65.004932	-7.641412021097047	0.187547513835443	0.0	-0.25189048709704664	8.528003	-1.186979	0.21868	0	0.0	0	0	0	0	0	0	0
0.03833333333333355	5.2636007468354435	57.082491	0.45736197890295305	0.21452088483544285	0.0	0.08589869390295224	-7.602803	0.112812	-1.682209	3.794658746835443	65.613943	-5.494650021097047	0.18211942983544294	0.0	-0.25873498009704754	8.165762	-1.557031	0.462953	0	0.0	0	0	0	0	0	0	0
0.040000000000000036	6.165368746835442	56.471149	-1.0762950210970468	0.1993850858354429	0.0	0.08793024790295245	-7.411651	-0.739745	-1.775346	4.697456746835443	67.445579	-6.723931021097047	0.18646527083544295	0.0	-0.25123824709704756	8.895546	-1.304977	0.218953	0	0.0	0	0	0	0	0	0	0
0.04166666666666652	6.163353746835442	55.860329	-1.380526021097047	0.20582672583544293	0.0	0.089726719902953	-7.232065	-0.371796	-1.775054	4.395102746835443	66.224766	-6.416392021097047	0.1879322178354429	0.0	-0.25160532309704653	8.711097	-1.184946	0.218766	0	0.0	0	0	0	0	0	0	0
0.043333333333333446	5.558881746835443	55.860365	-0.7643510210970468	0.20576679583544288	0.0	0.07985608690295276	-7.781355	-0.377063	-1.774242	4.703646746835442	66.22437	-6.1146220210970466	0.18794811283544288	0.0	-0.2488550640970475	8.894103	-1.182763	0.401958	0	0.0	0	0	0	0	0	0	0
0.04499999999999993	6.780631746835443	57.083339	-0.4727540210970469	0.2080504328354429	0.0	0.08922037890295353	-7.416195	-0.251626	-1.683043	4.391423746835443	65.614668	-6.722052021097047	0.1877643608354429	0.0	-0.25036620509704743	8.710951	-1.184695	0.523942	0	0.0	0	0	0	0	0	0	0
0.046666666666666856	6.459019746835443	58.301243	-1.9974940210970469	0.21454088683544292	0.0	0.10139243590295344	-6.870415	0.119835	-1.683292	4.703354746835442	65.614019	-6.115125021097047	0.18415256583544293	0.0	-0.2391925000970474	9.446154	-1.420892	0.280348	0	0.0	0	0	0	0	0	0	0
0.04833333333333334	6.475662746835443	58.914408	-0.16745502109704713	0.20824536483544298	0.0	0.09635862890295321	-7.233235	-0.249731	-1.774866	4.703938746835442	66.834721	-6.114120021097047	0.1862561938354429	0.0	-0.25280137609704756	8.712335	-1.306808	0.463008	0	0.0	0	0	0	0	0	0	0
0.04999999999999982	6.772765746835443	56.471582	-1.387309021097047	0.207905893835443	0.0	0.07813553590295275	-7.965349	-0.257033	-1.590678	5.931048746835444	66.223291	-5.517858021097047	0.1877972058354429	0.0	-0.25717785309704677	8.344879	-1.188961	0.27963	0	0.0	0	0	0	0	0	0	0
0.05166666666666675	6.158605746835443	57.080561	-1.6875470210970471	0.20600762183544297	0.0	0.09572528490295262	-7.048968	-0.37004	-1.775324	5.308062746835443	68.055643	-6.730203021097047	0.18652236283544288	0.0	-0.26049267609704696	8.346147	-1.310873	0.462836	0	0.0	0	0	0	0	0	0	0
0.05333333333333323	5.848696746835444	58.300341	-1.9916410210970468	0.206077102835443	0.0	0.088907589902953	-7.598122	-0.375447	-1.68296	4.703938746835442	66.834721	-6.114120021097047	0.18984801783544292	0.0	-0.2583208770970469	8.343437	-1.066747	0.462634	0	0.0	0	0	0	0	0	0	0
0.05500000000000016	5.857281746835444	56.470228	-1.3785300210970468	0.21240586583544296	0.0	0.09106593890295311	-7.235712	-0.005462	-1.866043	5.306310746835443	64.393536	-6.733219021097047	0.18554118683544296	0.0	-0.24213936709704686	9.078465	-1.302643	0.58525	0	0.0	0	0	0	0	0	0	0
0.05666666666666664	6.463767746835442	57.081012	-1.6904730210970471	0.212315176835443	0.0	0.08603869990295276	-7.601633	-0.009253	-1.682397	5.001153746835444	64.393679	-6.729831021097047	0.18362911183544295	0.0	-0.2449618350970466	8.896813	-1.426889	0.40216	0	0.0	0	0	0	0	0	0	0
0.05833333333333357	5.845771746835442	58.299872	-2.296803021097047	0.21032577683544285	0.0	0.09516647590295335	-7.234405	-0.127666	-1.774678	3.787592746835443	65.004097	-6.1054660210970475	0.18383587483544295	0.0	-0.2519238210970469	8.530596	-1.430903	0.463023	0	0.0	0	0	0	0	0	0	0
0.06000000000000005	5.858384746835442	57.691398	-1.0752270210970472	0.2102072468354429	0.0	0.08426156690295272	-7.783559	-0.133073	-1.682314	4.6920257468354425	63.173373	-7.032606021097047	0.18321244083544286	0.0	-0.24227495909704722	8.896725	-1.426738	0.585265	0	0.0	0	0	0	0	0	0	0
0.061666666666666536	6.452257746835443	58.910655	-2.608746021097047	0.21028926483544286	0.0	0.09336169390295357	-7.417365	-0.129562	-1.682855	4.0859747468354435	65.00446	-6.719167021097046	0.18576159083544297	0.0	-0.24628140109704688	8.895458	-1.304826	0.402059	0	0.0	0	0	0	0	0	0	0
0.06333333333333346	5.857281746835444	56.470228	-1.3785300210970468	0.21453683483544284	0.0	0.08780211590295295	-7.419979	0.114846	-1.865585	4.709253746835443	63.782459	-5.506319021097047	0.18524771983544297	0.0	-0.2523325830970471	8.346176	-1.310923	0.401801	0	0.0	0	0	0	0	0	0	0
